<?xml version="1.0" standalone="no"?>
<!DOCTYPE svg PUBLIC "-//W3C//DTD SVG 20010904//EN"
        "http://www.w3.org/TR/2001/REC-SVG-20010904/DTD/svg10.dtd">
<svg version="1.0" xmlns="http://www.w3.org/2000/svg"
     width="512.000000pt" height="512.000000pt" viewBox="0 0 512.000000 512.000000"
     preserveAspectRatio="xMidYMid meet">
    <metadata>
        Created by potrace 1.14, written by Peter Selinger 2001-2017
    </metadata>
    <g transform="translate(0.000000,512.000000) scale(0.100000,-0.100000)"
       fill="#000000" stroke="none">
        <path d="M1501 3333 c-1 -8 -12 -11 -32 -9 -36 4 -59 -15 -59 -50 0 -14 -4
-22 -10 -19 -5 3 -10 -1 -10 -10 0 -9 -4 -14 -8 -11 -4 2 -9 -5 -9 -17 -1 -12
-7 -23 -13 -25 -5 -2 -10 -14 -10 -26 0 -12 -7 -32 -16 -44 -9 -13 -13 -29
-10 -37 3 -9 0 -12 -10 -8 -10 4 -12 0 -8 -11 3 -9 2 -16 -3 -16 -15 0 -34
-48 -22 -56 6 -3 2 -13 -10 -23 -20 -18 -46 -69 -42 -85 1 -4 -3 -14 -10 -22
-6 -7 -8 -17 -5 -22 8 -13 -18 -34 -29 -24 -5 4 -5 2 -2 -4 4 -6 0 -20 -7 -30
-9 -12 -11 -23 -5 -30 7 -8 2 -14 -15 -18 -16 -4 -23 -12 -22 -23 2 -10 -3
-26 -10 -37 -7 -10 -10 -25 -7 -34 4 -10 2 -13 -5 -8 -8 4 -12 0 -12 -11 0
-11 -5 -24 -12 -31 -7 -7 -8 -12 -2 -12 5 0 3 -4 -3 -8 -11 -7 -19 -33 -22
-66 -1 -5 -8 -2 -18 5 -15 13 -15 12 -5 -8 15 -27 15 -34 1 -30 -6 1 -14 -4
-17 -12 -3 -9 0 -11 8 -6 9 6 9 3 1 -14 -7 -11 -16 -21 -21 -21 -6 0 -9 -3 -9
-7 4 -23 -4 -41 -27 -67 l-27 -28 24 7 24 8 -25 -24 c-17 -16 -25 -33 -23 -52
2 -24 0 -26 -13 -12 -19 18 -28 20 -17 3 11 -19 13 -39 2 -32 -9 5 -11 0 -13
-28 -1 -7 -4 -15 -8 -18 -4 -3 -9 -15 -11 -25 -4 -28 -31 -85 -39 -85 -4 0 -5
-7 -2 -15 4 -10 0 -15 -11 -15 -11 0 -15 -5 -11 -15 3 -8 0 -15 -5 -15 -6 0
-9 -9 -6 -20 3 -13 1 -18 -6 -13 -6 4 -8 -1 -5 -15 4 -16 2 -19 -10 -15 -12 5
-14 1 -10 -15 4 -12 3 -20 -2 -17 -4 2 -16 -5 -26 -17 -11 -12 -13 -18 -6 -14
13 8 17 -6 5 -18 -5 -4 -9 -12 -9 -17 -1 -5 -2 -10 -4 -11 -1 -2 -3 -13 -4
-25 -2 -18 3 -21 31 -21 18 0 33 5 33 10 0 6 7 5 15 -2 13 -10 18 -11 28 -1 9
10 8 11 -7 5 -19 -7 -18 -5 3 24 12 18 19 32 16 32 -4 0 1 7 9 16 9 8 16 26
16 38 0 24 22 51 33 40 3 -3 3 4 0 17 -4 15 -3 20 5 15 7 -4 12 -1 12 8 0 9 4
16 8 16 13 0 11 34 -2 43 -7 5 -3 6 8 3 15 -5 17 -2 13 14 -3 11 0 18 7 17 6
-1 11 10 10 26 0 15 4 27 9 27 5 0 6 7 3 16 -6 15 -4 15 11 3 14 -11 15 -12 9
0 -5 8 -4 16 3 21 7 4 13 13 15 21 1 8 8 25 15 38 9 16 9 21 1 16 -8 -5 -7 0
2 14 7 12 17 21 21 21 5 0 5 9 2 21 -8 23 21 63 38 52 6 -4 7 -1 3 6 -5 7 -1
20 8 30 8 9 14 27 11 39 -3 16 1 22 13 22 10 0 13 3 7 8 -5 4 -11 14 -13 22
-2 8 0 12 4 8 13 -13 32 12 27 35 -4 18 -3 19 7 7 9 -13 11 -12 9 5 -3 36 1
46 13 39 7 -5 9 0 6 14 -4 12 -1 20 4 19 6 -1 11 11 12 27 1 16 7 31 14 34 7
2 12 10 12 18 0 8 5 14 10 14 6 0 10 9 10 19 0 11 4 22 10 26 5 3 7 12 4 20
-3 7 3 22 14 33 10 10 18 26 16 35 -1 10 2 14 8 10 7 -4 9 2 5 16 -5 19 -3 20
10 9 15 -12 15 -11 4 10 -10 19 -9 22 5 22 10 0 14 3 11 7 -4 3 0 17 8 30 9
13 12 23 8 22 -22 -4 -23 3 -2 21 13 10 19 19 12 20 -6 0 2 14 19 30 19 20 28
37 25 50 -3 13 -1 17 9 13 10 -4 12 0 7 12 -4 12 0 23 13 32 16 12 17 15 4 23
-12 8 -12 10 -1 10 10 0 11 4 3 13 -8 9 -4 12 14 13 17 1 24 -3 24 -17 0 -10
5 -19 10 -19 6 0 10 -7 10 -16 0 -8 4 -13 9 -10 5 4 7 -3 4 -14 -3 -12 1 -22
10 -26 9 -3 13 -13 10 -25 -4 -13 0 -19 11 -19 10 0 14 -5 11 -10 -4 -6 -1
-18 6 -26 6 -8 9 -17 6 -21 -4 -3 0 -11 7 -17 17 -14 33 -62 17 -52 -7 5 -9 1
-5 -8 3 -9 10 -13 15 -10 5 3 9 -5 9 -16 0 -15 5 -20 14 -17 10 4 12 0 9 -14
-3 -11 0 -19 6 -19 7 0 10 -4 7 -9 -4 -5 0 -12 6 -14 10 -4 10 -6 0 -6 -10 -1
-10 -4 0 -15 7 -8 18 -11 23 -8 6 2 5 -1 -2 -8 -10 -11 -8 -17 9 -32 12 -10
16 -18 10 -18 -5 0 -8 -9 -5 -21 4 -12 11 -18 20 -15 7 3 13 0 12 -7 -3 -19
13 -77 22 -83 5 -3 9 -14 9 -25 0 -10 5 -19 10 -19 6 0 10 -7 10 -15 0 -8 4
-15 10 -15 5 0 6 -7 3 -17 -4 -11 -3 -14 5 -9 8 4 12 0 12 -12 0 -10 3 -22 8
-26 7 -7 8 -11 11 -37 0 -5 7 -7 14 -3 8 5 8 2 -2 -9 -10 -13 -10 -17 -1 -17
7 0 10 -7 6 -16 -3 -8 -2 -12 4 -9 6 3 13 -2 16 -12 3 -10 10 -26 15 -35 5
-10 9 -26 9 -37 0 -10 9 -21 20 -24 13 -3 18 -10 14 -21 -3 -9 -1 -16 5 -16 6
0 8 -6 5 -14 -3 -7 2 -16 10 -19 9 -4 13 -13 10 -22 -3 -8 -1 -15 5 -15 6 0
11 -9 11 -19 0 -11 5 -23 10 -26 6 -4 8 -10 5 -15 -3 -4 2 -13 10 -20 9 -8 13
-21 10 -31 -4 -12 -1 -21 9 -25 9 -3 16 -16 16 -28 0 -17 2 -19 11 -6 9 12 10
11 6 -6 -2 -11 4 -37 14 -58 9 -20 13 -34 8 -31 -5 4 -6 -1 -3 -9 3 -9 10 -14
14 -11 13 8 19 -22 7 -34 -8 -8 -8 -11 2 -11 7 0 11 -6 8 -14 -4 -10 0 -12 15
-8 17 4 20 2 15 -11 -7 -19 17 -24 29 -6 5 8 9 7 14 -1 12 -20 36 -5 48 30 10
28 9 32 -14 40 -14 6 -22 15 -19 20 4 6 1 17 -5 25 -10 12 -10 15 1 15 8 1 3
7 -10 14 -15 8 -20 16 -12 20 16 10 14 26 -3 20 -8 -3 -17 -1 -21 5 -3 6 -2
11 2 11 5 0 9 9 9 19 0 12 -6 18 -16 16 -9 -2 -16 5 -18 16 -4 42 -6 48 -13
44 -3 -3 -12 16 -18 41 -6 24 -18 47 -25 50 -8 3 -16 23 -20 44 -3 21 -10 40
-15 42 -5 1 -11 12 -13 23 -1 11 -9 23 -17 26 -16 6 -23 49 -8 49 6 0 -1 9
-14 21 -13 12 -23 26 -21 31 1 6 -5 17 -15 25 -10 8 -11 11 -3 7 13 -7 13 -5
2 9 -8 9 -11 20 -9 24 3 5 -1 19 -10 33 -8 14 -12 17 -9 8 3 -10 2 -19 -2 -22
-4 -3 -9 5 -9 17 -1 12 -7 23 -13 25 -14 5 -13 29 3 35 7 3 4 6 -6 6 -14 1
-17 6 -12 24 7 20 6 21 -6 4 -13 -16 -14 -15 -16 8 -4 45 -6 55 -14 55 -7 0
-24 59 -21 73 1 4 -2 7 -7 7 -5 0 -12 14 -16 30 -4 19 -11 28 -18 23 -7 -3 -9
-3 -5 2 4 4 3 14 -3 22 -6 7 -8 13 -3 13 5 0 3 4 -4 9 -7 4 -14 17 -15 29 0
11 -5 18 -11 15 -5 -4 -7 1 -3 10 4 10 2 16 -6 14 -7 -1 -11 6 -11 15 1 10 -2
15 -7 12 -13 -8 -11 10 4 25 10 10 8 11 -8 5 -11 -4 -17 -3 -13 1 5 5 -4 24
-19 44 -16 21 -20 30 -9 21 19 -15 19 -14 2 17 -9 18 -17 36 -17 40 0 5 -10
23 -22 42 -11 19 -16 31 -10 28 8 -5 8 0 0 17 -7 15 -17 21 -29 18 -10 -2 -18
1 -18 7 0 6 5 10 12 9 6 -2 14 5 16 15 2 10 -2 17 -12 17 -8 0 -18 5 -22 12
-5 7 -2 9 7 4 8 -4 7 -2 -2 6 -9 7 -15 21 -13 31 2 15 0 16 -12 6 -12 -10 -17
-10 -27 0 -9 10 -8 11 6 6 10 -4 17 -2 17 5 0 6 -4 9 -9 6 -5 -4 -12 0 -14 6
-4 10 -6 10 -6 1z m-324 -609 c-3 -3 -12 -4 -19 -1 -8 3 -5 6 6 6 11 1 17 -2
13 -5z m623 -4 c0 -5 -5 -10 -11 -10 -5 0 -7 5 -4 10 3 6 8 10 11 10 2 0 4 -4
4 -10z"/>
        <path d="M2600 3319 c0 -5 7 -12 15 -15 11 -5 12 -11 4 -26 -7 -14 -7 -23 1
-33 7 -8 9 -19 5 -25 -3 -5 -2 -10 4 -10 5 0 12 4 15 8 5 9 47 9 63 -1 6 -4
14 0 17 9 4 9 11 12 18 7 20 -12 38 -12 38 -1 0 7 4 7 13 1 6 -6 33 -10 59
-10 25 -1 52 -4 59 -8 7 -5 10 -4 5 3 -4 7 1 10 14 9 11 -1 20 -6 20 -12 0 -5
5 -2 11 8 9 16 12 16 31 2 14 -9 26 -11 33 -5 15 12 65 21 65 11 0 -10 61 -9
77 2 6 4 14 3 18 -3 9 -14 62 -12 68 3 3 7 6 5 6 -5 1 -20 16 -24 26 -7 5 7
11 5 18 -4 7 -8 26 -14 42 -13 17 0 40 -6 53 -16 13 -9 30 -14 39 -11 10 4 14
2 10 -4 -3 -5 0 -10 8 -10 8 0 15 5 15 11 0 6 4 4 9 -4 6 -8 7 -19 4 -25 -4
-5 -3 -7 2 -3 10 10 47 -11 40 -22 -3 -5 4 -7 15 -5 11 2 19 1 16 -3 -6 -10
21 -32 30 -24 4 4 4 2 0 -5 -3 -6 1 -16 10 -21 9 -5 15 -11 13 -13 -5 -9 13
-49 22 -49 6 0 7 -4 4 -10 -3 -5 -1 -10 6 -10 6 0 9 -8 6 -20 -3 -13 2 -25 16
-35 19 -13 19 -15 4 -15 -15 0 -17 -5 -11 -22 4 -13 8 -33 8 -45 0 -12 4 -19
10 -16 5 4 7 -1 3 -10 -4 -10 -1 -17 6 -17 8 -1 7 -5 -3 -13 -9 -7 -14 -20
-12 -31 3 -12 0 -16 -8 -11 -9 6 -10 1 -4 -16 12 -35 8 -66 -10 -84 -9 -9 -14
-21 -11 -26 4 -5 1 -9 -5 -9 -6 0 -9 -4 -6 -9 3 -5 -3 -20 -14 -34 -11 -14
-20 -31 -20 -37 0 -7 -7 -10 -16 -6 -8 3 -13 2 -9 -3 7 -12 -41 -49 -72 -57
-13 -4 -20 -11 -16 -17 4 -6 0 -8 -10 -4 -10 3 -17 2 -17 -3 0 -6 -9 -10 -20
-10 -11 0 -20 -5 -20 -10 0 -7 -6 -7 -19 0 -24 12 -56 3 -42 -14 11 -13 -56
-15 -76 -3 -12 8 -17 2 -14 -15 0 -5 -6 -8 -15 -8 -8 0 -12 5 -9 10 8 13 -11
13 -36 0 -12 -7 -19 -7 -19 -1 0 5 -12 8 -27 7 -16 -2 -28 -5 -28 -6 0 -7 -45
-8 -67 -1 -14 5 -29 7 -32 3 -4 -3 -16 -7 -27 -9 -14 -2 -18 1 -13 9 4 7 -3 4
-16 -7 -13 -11 -20 -14 -16 -7 6 9 2 12 -10 10 -11 -2 -22 -7 -26 -12 -3 -5
-14 -1 -24 8 -9 10 -20 14 -23 9 -8 -10 -54 -16 -48 -5 3 4 -8 7 -25 8 -16 1
-24 -2 -18 -6 8 -5 7 -9 -4 -13 -9 -4 -16 -2 -16 3 0 6 -7 10 -15 10 -8 0 -15
-6 -15 -12 0 -9 -3 -9 -8 -3 -9 14 -92 14 -92 0 0 -5 -4 -4 -9 4 -5 8 -8 -5
-6 -35 1 -27 -2 -57 -7 -66 -5 -11 -5 -18 1 -18 6 0 8 -17 5 -40 -3 -28 -1
-40 8 -41 7 0 5 -3 -4 -7 -15 -6 -16 -10 -4 -32 10 -21 10 -29 -2 -47 -13 -21
-13 -23 4 -23 16 -1 15 -3 -5 -14 -22 -12 -23 -13 -3 -18 16 -4 19 -11 14 -34
-3 -16 -10 -32 -16 -36 -7 -5 -3 -8 9 -8 11 0 16 -3 9 -8 -5 -4 -10 -42 -11
-84 0 -82 -2 -79 52 -83 11 0 23 4 27 10 5 6 8 6 8 -2 0 -7 8 -13 18 -12 10 0
12 3 5 6 -8 3 -10 11 -5 21 10 19 7 124 -4 160 -4 14 -2 22 6 22 10 0 10 3 1
14 -9 11 -9 20 -2 35 7 12 7 22 2 25 -5 4 -6 18 -2 33 4 15 4 46 1 70 -4 24
-5 45 -2 48 11 11 10 60 -1 67 -8 5 -6 8 6 8 9 0 17 5 17 12 0 6 7 3 15 -8 13
-16 16 -17 25 -4 6 10 10 11 10 3 0 -20 30 -15 31 5 0 15 1 15 8 -2 7 -17 8
-17 23 -2 18 18 33 22 23 6 -3 -5 -2 -10 4 -10 5 0 18 -3 28 -6 15 -5 15 -4 3
5 -8 6 -10 11 -4 11 6 0 17 -7 24 -15 9 -11 15 -13 20 -5 4 6 23 15 43 19 30
7 35 6 29 -8 -5 -14 -4 -14 12 -1 10 8 28 15 39 17 16 2 18 0 9 -6 -11 -6 -9
-10 7 -14 12 -3 21 -1 21 4 0 4 7 5 17 2 12 -5 14 -3 9 8 -4 8 2 3 14 -11 12
-14 19 -20 16 -13 -8 16 30 37 39 23 7 -12 73 -9 94 5 9 5 12 4 8 -3 -8 -12
31 -4 50 11 7 5 20 7 28 3 10 -4 14 -2 9 5 -4 8 1 9 15 4 12 -3 21 -2 21 4 0
5 8 8 18 6 26 -5 46 10 39 29 -4 9 -2 16 2 16 5 0 11 -5 13 -11 5 -14 78 7 78
22 0 5 7 9 16 9 10 0 14 6 11 15 -4 8 -1 17 5 21 7 4 8 3 4 -4 -4 -7 -3 -12 2
-12 16 0 22 13 12 25 -7 8 -3 11 13 11 13 -1 21 4 20 12 -2 6 2 12 8 12 5 0 7
5 4 10 -3 6 -1 10 5 10 7 0 9 7 6 16 -5 14 -4 15 8 5 11 -9 16 -9 22 0 4 8 3
9 -4 5 -7 -4 -12 -2 -12 3 0 6 5 11 10 11 6 0 10 6 9 13 -4 29 2 42 11 22 8
-19 9 -19 9 3 1 34 2 36 13 50 6 7 7 12 1 12 -5 0 -10 6 -10 14 0 8 6 12 15 8
11 -4 14 -1 9 11 -3 9 -2 17 3 17 6 0 10 9 10 20 0 11 -6 20 -12 20 -8 0 -9 3
-3 8 6 4 10 21 10 37 0 17 2 34 4 40 9 18 8 44 -2 38 -6 -4 -8 0 -4 10 4 10 1
17 -6 18 -7 0 -3 4 8 9 11 5 14 9 6 9 -7 1 -11 7 -7 16 3 8 0 14 -6 12 -13 -2
-15 53 -3 73 5 8 4 11 -1 7 -6 -3 -16 -2 -24 4 -10 6 -11 9 -2 9 6 0 12 5 12
10 0 6 -6 10 -14 10 -7 0 -21 15 -30 34 -8 18 -22 39 -31 46 -8 7 -12 16 -9
21 3 5 -6 13 -20 19 -15 5 -25 15 -24 22 2 7 -5 12 -14 10 -10 -2 -18 2 -18 8
0 5 -7 10 -16 10 -8 0 -13 4 -9 9 3 5 1 12 -5 16 -5 3 -10 1 -10 -5 0 -7 -7
-5 -16 4 -8 9 -20 14 -25 11 -5 -4 -9 0 -9 8 0 11 -7 13 -22 9 -14 -3 -19 -2
-14 6 6 11 -15 17 -29 10 -2 -2 -11 6 -20 17 -9 11 -14 14 -10 8 4 -8 0 -13
-9 -13 -26 0 -31 2 -29 9 1 4 -13 7 -30 8 -33 1 -103 11 -124 18 -7 2 -15 0
-18 -5 -4 -7 -13 -6 -26 0 -13 7 -19 7 -19 0 0 -14 -27 -13 -33 3 -4 9 -6 9
-6 0 -1 -9 -8 -10 -25 -4 -13 5 -40 6 -60 1 -20 -4 -36 -4 -36 1 0 5 -11 4
-24 -1 -13 -5 -26 -6 -29 -3 -9 9 -181 9 -194 0 -6 -4 -14 -3 -18 3 -4 6 -13
7 -23 1 -9 -4 -24 -7 -32 -6 -8 2 -27 5 -42 8 -16 3 -28 1 -28 -4z m557 -945
c-3 -3 -12 -4 -19 -1 -8 3 -5 6 6 6 11 1 17 -2 13 -5z"/>
        <path d="M4267 3318 c2 -5 0 -8 -5 -8 -10 0 -9 -30 2 -48 6 -11 2 -16 -15 -14
-11 1 -6 -27 6 -32 8 -3 11 -20 8 -48 -2 -24 -5 -56 -6 -73 -1 -16 -6 -33 -12
-37 -6 -5 -5 -8 3 -8 10 0 10 -5 2 -21 -9 -15 -8 -24 1 -35 6 -8 9 -27 6 -43
-4 -19 -2 -31 6 -35 9 -3 9 -5 0 -5 -9 -1 -10 -11 -6 -33 5 -25 3 -29 -8 -22
-10 5 -8 0 4 -19 15 -23 16 -34 7 -66 -5 -21 -7 -47 -3 -57 5 -13 3 -15 -8 -9
-12 8 -12 6 0 -8 7 -9 11 -24 7 -32 -3 -8 -1 -15 3 -15 5 0 8 -8 6 -17 -1 -10
-7 -17 -13 -16 -5 1 -8 -7 -5 -17 3 -11 9 -20 14 -20 5 0 6 -7 3 -15 -4 -8
-11 -12 -16 -9 -6 4 -2 -5 7 -20 17 -25 17 -26 0 -20 -15 6 -16 4 -6 -14 11
-22 11 -48 -2 -69 -4 -6 -2 -15 4 -19 8 -5 9 -3 4 6 -5 8 -4 11 3 7 13 -9 4
-47 -11 -47 -6 0 -2 -7 9 -15 10 -8 14 -15 8 -15 -7 0 -14 -10 -17 -22 -6 -22
-6 -22 8 -4 12 15 15 16 15 5 0 -9 -3 -19 -7 -23 -5 -4 -8 -13 -8 -19 -1 -7
-5 -11 -11 -10 -5 1 -10 -7 -10 -17 0 -14 4 -16 12 -9 9 7 11 5 9 -8 -2 -10
-4 -19 -5 -20 -8 -10 -5 -31 8 -52 10 -16 10 -21 1 -16 -9 6 -11 1 -6 -23 4
-17 2 -34 -3 -37 -6 -3 -10 -11 -10 -16 0 -6 5 -7 12 -3 8 5 9 -2 5 -23 -3
-17 -1 -35 6 -42 8 -8 8 -11 -2 -11 -9 0 -12 -9 -9 -25 3 -13 0 -27 -6 -30 -8
-3 -7 -7 2 -11 6 -3 12 -13 12 -22 0 -15 -2 -15 -10 -2 -7 11 -8 8 -6 -12 1
-15 8 -34 16 -42 10 -13 10 -16 -3 -16 -17 0 -17 -29 0 -47 6 -7 23 -13 38
-13 18 0 24 4 19 13 -6 9 -5 9 8 -1 12 -10 18 -10 27 2 6 7 9 21 5 30 -3 9 -2
16 3 16 9 0 9 34 0 125 -2 17 -1 34 2 39 7 15 6 60 -3 74 -4 7 -2 12 4 12 7 0
8 6 0 19 -7 14 -7 22 1 27 8 4 7 9 -2 14 -10 7 -10 17 -2 47 12 39 11 85 -2
116 -4 10 -3 17 4 17 7 0 7 8 1 26 -13 33 -13 47 0 39 6 -4 7 -11 4 -17 -4 -7
-2 -8 5 -4 9 6 9 11 -1 23 -16 19 -19 64 -6 81 7 8 7 12 0 12 -6 0 -9 8 -7 18
1 9 8 16 15 14 7 -1 6 6 -4 20 -19 27 -21 42 -3 32 6 -4 9 -4 5 1 -4 4 -3 14
3 21 7 8 6 14 -2 20 -8 4 -9 3 -5 -4 4 -7 2 -12 -3 -12 -6 0 -11 7 -11 15 0 8
5 15 12 15 9 0 9 3 0 12 -7 7 -12 17 -12 22 0 6 5 4 10 -4 8 -13 10 -13 10 2
0 9 -5 20 -11 23 -6 5 -4 12 8 21 12 10 13 12 3 9 -13 -5 -15 3 -13 42 1 27 4
57 6 68 3 11 0 25 -5 32 -5 7 -5 14 1 17 6 4 8 13 4 21 -3 9 1 15 8 15 11 0
11 3 -1 10 -13 9 -13 10 0 11 10 0 8 3 -5 9 -11 5 -14 9 -7 9 10 1 10 6 1 22
-8 17 -8 20 1 14 9 -5 10 -1 5 15 -6 17 -4 21 6 14 12 -6 12 -5 1 8 -10 13
-10 17 0 21 7 3 4 6 -7 6 -16 1 -17 3 -6 10 12 8 12 12 2 25 -11 13 -11 19 -1
31 10 12 10 15 -1 15 -12 0 -12 2 0 9 11 7 11 9 0 14 -8 3 -9 6 -4 6 6 1 8 23
6 52 -2 36 0 49 8 45 12 -8 -4 38 -23 62 -7 11 -11 11 -17 0 -5 -8 -9 -9 -9
-2 0 6 -13 11 -29 10 -16 -1 -27 -4 -24 -8z m3 -302 c0 -3 -4 -8 -10 -11 -5
-3 -10 -1 -10 4 0 6 5 11 10 11 6 0 10 -2 10 -4z m0 -823 c0 -19 -13 -9 -16
12 -1 8 2 13 7 9 5 -3 9 -12 9 -21z"/>
        <path d="M4245 3200 c3 -5 8 -10 11 -10 2 0 4 5 4 10 0 6 -5 10 -11 10 -5 0
-7 -4 -4 -10z"/>
        <path d="M4246 2793 c-6 -14 -5 -15 5 -6 7 7 10 15 7 18 -3 3 -9 -2 -12 -12z"/>
        <path d="M865 2119 c-4 -6 -5 -12 -2 -15 2 -3 7 2 10 11 7 17 1 20 -8 4z"/>
        <path d="M2601 1994 c0 -11 3 -14 6 -6 3 7 2 16 -1 19 -3 4 -6 -2 -5 -13z"/>
        <path d="M2220 1790 c0 -5 4 -10 9 -10 6 0 13 5 16 10 3 6 -1 10 -9 10 -9 0
-16 -4 -16 -10z"/>
    </g>
</svg>
